<?xml version="1.0" encoding="utf-8"?>
<svg width="366" height="330" viewBox="0 0 366 330" xmlns="http://www.w3.org/2000/svg">
<rect id="frame" x="0" y="0" width="366" height="330" fill="#fff" stroke="none" stroke-width="0"/>

<!-- Association possède -->
<g class="page_0_TKNiUD7w diagram_page" visibility="visible">
	<line x1="60" y1="211" x2="60" y2="51" stroke="#d6604d" stroke-width="2"/>
	<text x="65" y="93" fill="#4d4d4d" font-family="Verdana" font-size="12">0,N</text>
	<line x1="183" y1="51" x2="60" y2="51" stroke="#d6604d" stroke-width="2"/>
	<text x="133" y="68" fill="#4d4d4d" font-family="Verdana" font-size="12">0,N</text>
	<g>
		<path d="M78 26 a14 14 90 0 1 14 14 V51 h-64 V40 a14 14 90 0 1 14 -14" fill="#f4a582" stroke="#f4a582" stroke-width="0"/>
		<path d="M92 51 v11 a14 14 90 0 1 -14 14 H42 a14 14 90 0 1 -14 -14 V51 H64" fill="#fddbc7" stroke="#fddbc7" stroke-width="0"/>
		<rect x="28" y="26" width="64" height="50" fill="none" rx="14" stroke="#d6604d" stroke-width="2"/>
		<line x1="28" y1="51" x2="92" y2="51" stroke="#d6604d" stroke-width="1"/>
		<text x="35" y="43.75" fill="#000" font-family="Verdana" font-size="12">possède</text>
	</g>
</g>

<!-- Association est un -->
<g class="page_0_TKNiUD7w diagram_page" visibility="visible">
	<line x1="290" y1="211" x2="290" y2="51" stroke="#d6604d" stroke-width="2"/>
	<text x="295" y="161" fill="#4d4d4d" font-family="Verdana" font-size="12">0,1</text>
	<line x1="183" y1="51" x2="290" y2="51" stroke="#d6604d" stroke-width="2"/>
	<text x="211" y="68" fill="#4d4d4d" font-family="Verdana" font-size="12">0,N</text>
	<g>
		<path d="M303 26 a14 14 90 0 1 14 14 V51 h-54 V40 a14 14 90 0 1 14 -14" fill="#f4a582" stroke="#f4a582" stroke-width="0"/>
		<path d="M317 51 v11 a14 14 90 0 1 -14 14 H277 a14 14 90 0 1 -14 -14 V51 H54" fill="#fddbc7" stroke="#fddbc7" stroke-width="0"/>
		<rect x="263" y="26" width="54" height="50" fill="none" rx="14" stroke="#d6604d" stroke-width="2"/>
		<line x1="263" y1="51" x2="317" y2="51" stroke="#d6604d" stroke-width="1"/>
		<text x="271" y="43.75" fill="#000" font-family="Verdana" font-size="12">est un</text>
	</g>
</g>

<!-- Association a le droit à -->
<g class="page_0_TKNiUD7w diagram_page" visibility="visible">
	<line x1="60" y1="211" x2="183" y2="211" stroke="#d6604d" stroke-width="2"/>
	<text x="116" y="228" fill="#4d4d4d" font-family="Verdana" font-size="12">0,N</text>
	<line x1="183" y1="51" x2="183" y2="211" stroke="#d6604d" stroke-width="2"/>
	<text x="188" y="110" fill="#4d4d4d" font-family="Verdana" font-size="12">0,N</text>
	<g>
		<path d="M209 186 a14 14 90 0 1 14 14 V211 h-80 V200 a14 14 90 0 1 14 -14" fill="#f4a582" stroke="#f4a582" stroke-width="0"/>
		<path d="M223 211 v11 a14 14 90 0 1 -14 14 H157 a14 14 90 0 1 -14 -14 V211 H80" fill="#fddbc7" stroke="#fddbc7" stroke-width="0"/>
		<rect x="143" y="186" width="80" height="50" fill="none" rx="14" stroke="#d6604d" stroke-width="2"/>
		<line x1="143" y1="211" x2="223" y2="211" stroke="#d6604d" stroke-width="1"/>
		<text x="150" y="203.75" fill="#000" font-family="Verdana" font-size="12">a le droit à</text>
	</g>
</g>

<!-- Entity ITEM -->
<g class="page_0_TKNiUD7w diagram_page" visibility="visible">
	<g>
		<rect x="160" y="9" width="46" height="25" fill="#bababa" stroke="#bababa" stroke-width="0" opacity="1"/>
		<rect x="160" y="34" width="46" height="59" fill="#e0e0e0" stroke="#e0e0e0" stroke-width="0" opacity="1"/>
		<rect x="160" y="9" width="46" height="84" fill="none" stroke="#878787" stroke-width="2" opacity="1"/>
		<line x1="160" y1="34" x2="206" y2="34" stroke="#878787" stroke-width="1"/>
	</g>
	<text x="168" y="26.75" fill="#000" font-family="Verdana" font-size="12">ITEM</text>
	<text x="165" y="51.8" fill="#000" font-family="Verdana" font-size="12">id</text>
	<line x1="165" y1="54" x2="177" y2="54" stroke="#000" stroke-width="1"/>
	<text x="165" y="68.8" fill="#000" font-family="Verdana" font-size="12">name</text>
	<text x="165" y="85.8" fill="#000" font-family="Verdana" font-size="12">type</text>
</g>

<!-- Entity CLASS -->
<g class="page_0_TKNiUD7w diagram_page" visibility="visible">
	<g>
		<rect x="9" y="101" width="102" height="25" fill="#bababa" stroke="#bababa" stroke-width="0" opacity="1"/>
		<rect x="9" y="126" width="102" height="195" fill="#e0e0e0" stroke="#e0e0e0" stroke-width="0" opacity="1"/>
		<rect x="9" y="101" width="102" height="220" fill="none" stroke="#878787" stroke-width="2" opacity="1"/>
		<line x1="9" y1="126" x2="111" y2="126" stroke="#878787" stroke-width="1"/>
	</g>
	<text x="40" y="118.75" fill="#000" font-family="Verdana" font-size="12">CLASS</text>
	<text x="14" y="143.8" fill="#000" font-family="Verdana" font-size="12">id</text>
	<line x1="14" y1="146" x2="26" y2="146" stroke="#000" stroke-width="1"/>
	<text x="14" y="160.8" fill="#000" font-family="Verdana" font-size="12">name</text>
	<text x="14" y="177.8" fill="#000" font-family="Verdana" font-size="12">base_health</text>
	<text x="14" y="194.8" fill="#000" font-family="Verdana" font-size="12">base_force</text>
	<text x="14" y="211.8" fill="#000" font-family="Verdana" font-size="12">base_dext</text>
	<text x="14" y="228.8" fill="#000" font-family="Verdana" font-size="12">base_const</text>
	<text x="14" y="245.8" fill="#000" font-family="Verdana" font-size="12">base_intell</text>
	<text x="14" y="262.8" fill="#000" font-family="Verdana" font-size="12">base_wisdom</text>
	<text x="14" y="279.8" fill="#000" font-family="Verdana" font-size="12">base_charisma</text>
	<text x="14" y="296.8" fill="#000" font-family="Verdana" font-size="12">allowedItems</text>
	<text x="14" y="313.8" fill="#000" font-family="Verdana" font-size="12">startingItems</text>
</g>

<!-- Entity TYPE -->
<g class="page_0_TKNiUD7w diagram_page" visibility="visible">
	<g>
		<rect x="255" y="169" width="70" height="25" fill="#bababa" stroke="#bababa" stroke-width="0" opacity="1"/>
		<rect x="255" y="194" width="70" height="59" fill="#e0e0e0" stroke="#e0e0e0" stroke-width="0" opacity="1"/>
		<rect x="255" y="169" width="70" height="84" fill="none" stroke="#878787" stroke-width="2" opacity="1"/>
		<line x1="255" y1="194" x2="325" y2="194" stroke="#878787" stroke-width="1"/>
	</g>
	<text x="275" y="186.75" fill="#000" font-family="Verdana" font-size="12">TYPE</text>
	<text x="260" y="211.8" fill="#000" font-family="Verdana" font-size="12">id</text>
	<line x1="260" y1="214" x2="272" y2="214" stroke="#000" stroke-width="1"/>
	<text x="260" y="228.8" fill="#000" font-family="Verdana" font-size="12">name</text>
	<text x="260" y="245.8" fill="#000" font-family="Verdana" font-size="12">attributes</text>
</g>
</svg>